_________________________  Visit us at _________________________
  
http://p2pdl.com  ____________________________  http://p2pdl.com


Cowboys And Aliens 2011 BRRip 720p x264 AAC - PRiSTiNE


Genre: Action | Sci-Fi | Thriller
Plot: A spaceship arrives in Arizona, 1873, to take over the Earth, starting with the Wild West region.
A posse of cowboys and natives are all that stand in their way. 
Director: Jon Favreau
Stars: Daniel Craig, Harrison Ford, Olivia Wilde.
Rated: PG-13 for intense sequences of western and sci-fi action and violence, some partial nudity and
a brief crude reference.


Info: 
http://www.imdb.com/title/tt0409847/

Trailer:


Format                         : MPEG-4
File size                      : 752 MiB
Duration                       : 2h 15mn
Overall bit rate               : 778 Kbps
Video Format                   : AVC
Bit rate                       : 699 Kbps
Width                          : 1 280 pixels
Height                         : 528 pixels
Display aspect ratio           : 2.40:1
Frame rate mode                : Constant
Frame rate                     : 23.976 fps
Stream size                    : 676 MiB (90%)
Writing library                : x264 core 129 r2245 
Audio Format                   : AAC
Audio Bit rate mode            : Variable
Bit rate                       : 75.9 Kbps
Channel(s)                     : 2 channels
Channel positions              : Front: L R
Sampling rate                  : 48.0 KHz
Stream size                    : 73.4 MiB (10%)
Language                       : English
Subtitle                       : Yes(English)
Source                         : Extended.720p.BluRay.x264-CROSSBOW(Thanks)

Screenshots:
 
http://cdn.piczend.com/images/eMaIOLNx/1363310058_1.jpg 
http://cdn.piczend.com/images/ofnBXIzf/1363310059_2.jpg 
http://cdn.piczend.com/images/0sblWL8F/1363310057_3.jpg 
http://cdn.piczend.com/images/TvZGeYic/1363310059_4.jpg 
http://cdn.piczend.com/images/MINK4yo5/1363310059_5.jpg 
http://cdn.piczend.com/images/MGUoljri/1363310059_6.jpg


----------------------------------------------------------------------------------------------------


Encoded using revolutionary 10bit encoding, which enables us to provide you more crispier 
and sharper images at small sizes, just make sure you follow our instructions without a fault.
Recommend to you to use latest version of VLC player. Install K-Lite Codec Pack or shark007 codecs
in case of any kind of problem in playback (For non-VLC Media Player users). Alternatively, install
Core AVC codecs, the fastest decoder that there is coupled with Community Center Codec Pack and play
on Windows Media Player Classic.

Encoder Notes: Encoder Notes: Looking For Early Access To Anything You Can Provide DVDScr, R5, DVDR, BluRay, Direct
Audio, Music Releases and Seedboxes. We require dedicated servers, so as to do more and fast releases of movies.
If You Got anything to offer contact us at "prg@hush.com".